<!-- Generated by IcoMoon.io -->
<svg version="1.1" xmlns="http://www.w3.org/2000/svg" width="32" height="32" viewBox="0 0 32 32">
<title>Vector-1</title>
<path fill="#61a568" d="M13.333 0c7.364 0 13.333 5.435 13.333 12.139s-5.97 12.139-13.333 12.139c-0.708 0-1.401-0.051-2.079-0.147-2.864 3.209-6.172 3.785-9.476 3.869v-0.785c1.785-0.98 3.222-2.765 3.222-4.804 0-0.285-0.020-0.564-0.056-0.837-3.015-2.225-4.944-5.625-4.944-9.434 0-6.704 5.97-12.139 13.333-12.139v-0.001zM27.667 27.209c0 1.748 1.009 3.278 2.556 4.118v0.673c-2.865-0.072-5.494-0.566-7.976-3.316-0.588 0.083-1.188 0.126-1.802 0.126-2.652 0-5.095-0.805-7.044-2.157 4.019-0.016 7.812-1.464 10.69-4.084 1.45-1.32 2.595-2.87 3.4-4.605 0.854-1.84 1.288-3.799 1.288-5.825 0-0.326-0.012-0.651-0.035-0.974 2.016 1.873 3.257 4.426 3.257 7.24 0 3.265-1.671 6.179-4.284 8.086-0.032 0.234-0.049 0.474-0.049 0.718z"></path>
</svg>
