<!-- Generated by IcoMoon.io -->
<svg version="1.1" xmlns="http://www.w3.org/2000/svg" width="31" height="32" viewBox="0 0 31 32">
<title>Vector-3</title>
<path fill="#61a568" d="M31.304 16.203c0-8.569-7.007-15.515-15.652-15.515s-15.652 6.946-15.652 15.515c0 1.861 0.331 3.645 0.937 5.298-0.596 1.006-0.937 2.178-0.937 3.429 0 3.419 2.551 6.248 5.87 6.719v-13.437c-0.975 0.139-1.885 0.48-2.682 0.981-0.164-0.81-0.252-1.647-0.252-2.506 0-6.962 5.693-12.606 12.717-12.606s12.717 5.643 12.717 12.606c0 0.858-0.086 1.696-0.251 2.506-0.798-0.501-1.707-0.844-2.683-0.982v13.438c3.318-0.47 5.87-3.299 5.87-6.719 0-1.251-0.341-2.422-0.937-3.429 0.607-1.653 0.937-3.438 0.937-5.299v0.001z"></path>
</svg>
