<!-- Generated by IcoMoon.io -->
<svg version="1.1" xmlns="http://www.w3.org/2000/svg" width="31" height="32" viewBox="0 0 31 32">
<title>Vector-4</title>
<path fill="#61a568" d="M25.435 5.103v-4.423h-19.565v4.423h-5.87v4.423c0 3.664 2.628 6.634 5.87 6.634 0.613 0 1.205-0.106 1.762-0.304 1.412 2.281 3.565 3.932 6.064 4.506v6.855h-1.957c-2.161 0-3.913 1.98-3.913 4.423h15.652c0-2.442-1.752-4.423-3.913-4.423h-1.957v-6.855c2.499-0.574 4.653-2.225 6.064-4.506 0.556 0.198 1.148 0.304 1.762 0.304 3.242 0 5.87-2.97 5.87-6.634v-4.423h-5.87zM5.87 13.534c-1.956 0-3.546-1.798-3.546-4.008v-2.211h3.546v2.211c0 1.389 0.227 2.717 0.641 3.942-0.208 0.043-0.422 0.066-0.641 0.066zM28.981 9.526c0 2.21-1.591 4.008-3.546 4.008-0.219 0-0.432-0.023-0.641-0.066 0.414-1.224 0.641-2.553 0.641-3.942v-2.211h3.546v2.211z"></path>
</svg>
